<?xml version="1.0" encoding="utf-8"?>
<!-- Generator: Adobe Illustrator 22.0.1, SVG Export Plug-In . SVG Version: 6.00 Build 0)  -->
<svg version="1.1" id="Calque_1" xmlns="http://www.w3.org/2000/svg" xmlns:xlink="http://www.w3.org/1999/xlink" x="0px" y="0px"
	 viewBox="0 0 377.1 699.2" style="enable-background:new 0 0 377.1 699.2;" xml:space="preserve">
<style type="text/css">
	.st0{fill:#7AC943;}
	.st1{fill:#FFFFFF;}
</style>
<g>
	<path class="st0" d="M377.1,33C273.3,182.8,205.5,340.5,189.6,524.3c-5,57.6,29.6,166.1-62.9,174.7C50.2,706.2,65.2,539.3,0,532.1
		c18.4-52,37.1-103.8,55-155.9c16.1-46.6,8.3-85.5,16.3-132.9c6.4-38.5,41.6-81.5,35.7-120.5c-8.7-58-68,4.3-77.9-56.7
		c-9.8-60.3,53.7-38.9,91.7-31.3c13.5,2.7,55.5,18.7,67.3,13.4c7-3.2,14.1-22.7,20.7-28.7C254.8-23.1,327.8,15,377.1,33z"/>
</g>
<circle class="st1" cx="158.6" cy="657.8" r="9.5"/>
<circle class="st1" cx="312.6" cy="35.8" r="9.5"/>
<g>
	<g>
		<path class="st1" d="M310,41.4c-21.1,34-36.9,70.9-50.6,108.5c-14.4,39.3-27.1,79.1-38.6,119.3c-23,80.3-40.4,162.3-52.2,245
			c-6.6,46.5-11.4,93.3-14.5,140.2c-0.1,1.9,2.9,1.9,3,0c5.4-83.3,16.5-166.1,33.2-247.9c16.6-81.2,38.7-161.3,66.2-239.5
			c15.1-42.9,32.1-85.3,56.2-124.1C313.7,41.2,311.1,39.7,310,41.4L310,41.4z"/>
	</g>
</g>
</svg>
